<svg xmlns="http://www.w3.org/2000/svg" width="71" height="71"><defs><linearGradient id="a" x1=".5" x2=".5" y2="1" gradientUnits="objectBoundingBox"><stop offset="0" stop-color="#4e7e75"/><stop offset="1" stop-color="#a6c9c2"/></linearGradient></defs><g data-name="Groupe 43" transform="translate(1689 -275)"><circle data-name="Ellipse 16" cx="35.5" cy="35.5" r="35.5" transform="translate(-1689 275)" fill="url(#a)"/><path data-name="Tracé 44" d="M-1657.567 332a2.248 2.248 0 01-1.41-.36 1.45 1.45 0 01-.45-1.2v-7.86a8.516 8.516 0 00-2.94-.96 31.846 31.846 0 00-4.08-.54 10.2 10.2 0 00-.96 3.06l-.24 1.2q-.06.42-.36 1.86a20.926 20.926 0 01-.66 2.49 8.909 8.909 0 01-.72 1.65q-2.28 0-2.64-1.2.66-.96 1.5-5.64l1.98-10.98q1.32-7.8 2.43-13.32a76.248 76.248 0 012.37-9.24q1.38-4.14 2.64-4.14a3.238 3.238 0 011.92.48q0 2.4 1.14 11.58a112.713 112.713 0 011.2 12.3 88.99 88.99 0 00.66 9.12q.6 6.06.6 9.66a1.777 1.777 0 01-1.98 2.04zm-3.12-12.9a5.127 5.127 0 001.2-.18q-.18-2.64-.6-6.54-1.38-13.56-1.38-16.62v-.48q-.6.6-1.65 5.43t-1.95 10.35a72.94 72.94 0 00-.96 7.32 19.35 19.35 0 005.34.72zm15.66 13.38q-2.76 0-2.76-1.5l.12-7.38.12-7.38q0-4.02-.18-12.18-.18-8.1-.18-12.18v-.36a12.993 12.993 0 01.3-2.88 1.819 1.819 0 011.92-1.62 8.564 8.564 0 016.66 2.7 10.191 10.191 0 012.46 7.14 12.818 12.818 0 01-1.44 5.64 11.551 11.551 0 01-3.42 4.38 14.1 14.1 0 015.13 6.03 19.692 19.692 0 011.65 8.13 13.062 13.062 0 01-1.44 5.22 11.175 11.175 0 01-4.74 5.34 8.729 8.729 0 01-3.96.9zm.6-26.52a4.236 4.236 0 002.64-2.58 25.2 25.2 0 001.68-4.08 14.967 14.967 0 01.6-1.68v-2.1a5.573 5.573 0 00-1.32-3.48 3.788 3.788 0 00-3-1.68q-.84 0-.84 1.86 0 3.96.12 7.08zm.24 23.4a6.878 6.878 0 004.68-2.7 8.737 8.737 0 001.74-5.46 26.562 26.562 0 00-.45-5.07 11.159 11.159 0 00-1.17-3.51 13.281 13.281 0 00-1.32-1.92 4.072 4.072 0 00-1.14-1.02l-.48-.18h-2.16q.3 6.9.3 19.86z" fill="#fff"/></g></svg>