<svg xmlns="http://www.w3.org/2000/svg" width="398.037" height="282.849"><ellipse data-name="Ellipse 17" cx="33.81" cy="4.05" rx="33.81" ry="4.05" transform="translate(.017 274.75)" fill="#e6e6e6"/><path data-name="Rectangle 28" fill="#e6e6e6" d="M88.291.176h309.747v198.376H88.291z"/><path data-name="Rectangle 29" fill="#fff" d="M97.148 25.057H389.18v161.758H97.148z"/><path data-name="Rectangle 30" fill="#99b8bf" d="M88.159 0h309.747v13.159H88.159z"/><circle data-name="Ellipse 18" cx="2.439" cy="2.439" r="2.439" transform="translate(95.498 4.289)" fill="#fff"/><circle data-name="Ellipse 19" cx="2.439" cy="2.439" r="2.439" transform="translate(104.756 4.289)" fill="#fff"/><circle data-name="Ellipse 20" cx="2.439" cy="2.439" r="2.439" transform="translate(114.014 4.289)" fill="#fff"/><path data-name="Tracé 45" d="M263.115 65.782a2.359 2.359 0 00-.086.555z" fill="#7f77ff"/><path data-name="Tracé 46" d="M225.767 82.873c-.017-.407-.09-.576-.156-.6.048.381.093.691.156.6z" fill="#7f77ff"/><path data-name="Tracé 47" d="M225.013 91.453c-.013.176-.026.339-.048.537a.846.846 0 01.048-.537z" fill="#7f77ff"/><path data-name="Tracé 48" d="M263.028 66.338l-.229 1.426c.238.1.177-.731.229-1.426z" fill="#7f77ff"/><path data-name="Tracé 49" d="M275.909 53.046h.434a2.231 2.231 0 00.36-.3z" fill="#7f77ff"/><path data-name="Tracé 50" d="M292.904 53.795a.513.513 0 01.391-.424 2.8 2.8 0 00-.389-.438c-.21-.025.012.593-.002.862z" fill="#7f77ff"/><path data-name="Tracé 51" d="M310.686 41.676c.057-.009.111-.017.154-.026z" fill="#7f77ff"/><path data-name="Tracé 52" d="M310.332 41.736l.354-.059c-.117.017-.251.036-.354.059z" fill="#7f77ff"/><path data-name="Tracé 53" d="M262.304 54.508a.206.206 0 00-.221.1c.078.051.151 0 .221-.1z" fill="#7f77ff"/><path data-name="Tracé 54" d="M332.355 42.37l.033.29a1.38 1.38 0 00.347.063z" fill="#7f77ff"/><path data-name="Tracé 55" d="M223.644 101.87v.013c0 .013 0 .009-.009.013s-.066.018-.114.026a.381.381 0 00-.075-.013c.066-.009.132-.022.185-.026.004-.005.009-.013.013-.013z" fill="#7f77ff"/><path data-name="Tracé 56" d="M174.079 170.049c-1.735-.553 2.824-.71.211-1.325.243.242-2.374.965-.211 1.325z" fill="#7f77ff"/><path data-name="Tracé 57" d="M187.948 109.86a1.084 1.084 0 01-.273.392c.133-.291.209-.379.273-.392z" fill="#7f77ff"/><path data-name="Tracé 58" d="M213.638 103.164a4.333 4.333 0 01-.709-.079z" fill="#7f77ff"/><path data-name="Tracé 59" d="M178.755 112.046a1.92 1.92 0 00-.732 0 .729.729 0 00.16.075 1.11 1.11 0 01.572-.075z" fill="#7f77ff"/><path data-name="Tracé 60" d="M178.755 112.046c.092.016.188.035.311.05a2.4 2.4 0 00-.311-.05z" fill="#7f77ff"/><path data-name="Tracé 61" d="M163.588 112.099c.082.047.19.083.286.125l.49-.033z" fill="#7f77ff"/><path data-name="Tracé 62" d="M176.436 112.515a.062.062 0 01-.035.048c.017-.026.035-.048.035-.048z" fill="#7f77ff"/><path data-name="Tracé 63" d="M329.829 169.15c-.1-.009-.2-.017-.308-.029.115.016.216.024.308.029z" fill="#7f77ff"/><path data-name="Tracé 64" d="M334.002 154.945h-.011c.004.019.007.014.011 0z" fill="#7f77ff"/><path data-name="Tracé 65" d="M212.316 103.565a2.426 2.426 0 00.462-.136c.322.083-.114.079-.462.136z" fill="#7f77ff"/><path data-name="Tracé 66" d="M333.552 100.696c.024-.1.049-.222.078-.365-.029.125-.052.243-.078.365z" fill="#7f77ff"/><path data-name="Tracé 67" d="M334.348 147.585a.93.93 0 01.2-.282l.062.22a3.982 3.982 0 00-.088-1.352 13.117 13.117 0 00.167-1.774c.467-.251.251-2.518.277-3.61-.616.088-.52-1.316-1.017-.035.035-.075.057.3.084.969a2.977 2.977 0 00.066.467c-.018-.022-.035-.048-.057-.075.013.718.026 1.655.044 2.721a4.451 4.451 0 01-.238-2.98c-.4-.559-.806-1.18-.995-1.528.863-1.5 1.33-4.385 1.858-4.785-.343-3.341-.229-7.872-1.391-9.976-.15-.951.335-1.092.519-1.448a8.014 8.014 0 00.264 1.5c-.3-1.9-.114-5.631-.929-6.084.365-2.395.748 1.347.616-1.946l.247.445c1.277-6.362-1.955-10.385-.484-17.337-.057.26-.11.414-.207.484.735-8.18-.691-16.861.476-24.936.233-2.294-.282-2.545-.678-3.945l.665-.5-.766-2.395c-.563-3.394 1.629-5.877.568-10.178l-.449.555c.088-1.545-.264-4.891.251-4.631a1.1 1.1 0 01-.229-1.109l.348-.048-.6-3.795c.251-2.936 1.382.462 1.448-3.83-.132-1.594-1.013-4.539-1.246-3.94-.013.643-.216 1.642-.564 1.691l-.18-1.457a3.552 3.552 0 01-.194-.057v-.233h-.63a1.059 1.059 0 00-.828 0h-15.783l.172-.172-.52.172h-2.228c.066-.132.277-.242.718-.295-1.62-.453-1.435.326-2.822-.18-.154-.079-.088-.123.057-.159l-1.585.273c.313-.194-.26-.647.709-.515-2.835-.528-4.574.687-5.644-.009l.238-.053c-2.945.229-1.7.489-2.122.938h-1.84l-.37-.308-.5-.414a3.507 3.507 0 00-.55-.414 5.214 5.214 0 00-.405.669c-.458-.022-1.4-.07-1.356-.343-.806.233-.638.3-.445.374.211.07.467.136.141.357a8.307 8.307 0 00-1.572-.216c-.057.977.013 2.162-.009 3.064-.022.942-.132 1.55-.563 1.739.511.7.4-1.871.753.216-1.153.585.194 2.439-.335 4.178-.594-.5-.277-2.228-.81-.431a1.566 1.566 0 01.361.625 1.959 1.959 0 01.018.718 6.615 6.615 0 01-.357 1.237 2.172 2.172 0 00-.8-.048c.264.4-.326.484-1.211.5h-1.77a22.24 22.24 0 00-1.964.092c.158-.269-4.759-.436-7.11-.726l.066-.136c-.453.81-2.879.656-4.649.823.07-.484.387-.674 1.347-.889h-1.664a4.11 4.11 0 01-1.986.489l.418-.608c-1.105.018-2.219.2-3.412.321-.6.062-1.211.106-1.858.114-.321 0-.652 0-.991-.022a10.205 10.205 0 01-.511-.04l-.581-.066c-.062.141.154.313.291.489a3.958 3.958 0 01.458.555.384.384 0 01.04.379h-1.541c0-.167.106-.317.431-.4a3.323 3.323 0 01-1.4.092c.352-.167.762-.339 1.224-.511-1.673-.224-.687.427-1.862.379-.242-.431-1.127-.308-1.224-.652a7.828 7.828 0 001.7.009 30.965 30.965 0 01-2.862-.286 3.748 3.748 0 01-.379 1.215c.247.022.586.436.638 1.567.018 1.448-.114 1.682-.277 1.774-.079.044-.167.048-.251.163a1.028 1.028 0 00-.119.251 1.763 1.763 0 00-.1.365c.3.537-.013 1.946.638 1.986 0 .647-.308.766-.484 1.017.286 1.145.084 5.345.775 4.055l.044-.295c.013.057.018.119.031.189a17.935 17.935 0 01.211 3.438c-.026.96-.119 1.871-.207 2.672a44.96 44.96 0 00-1.8-.132c-.282-.009-.555-.018-.828-.009l-.528.013c-.185.013-.374.022-.559.031l.009-.216c-2.223.247-4.948.145-6.533.616-.656 0-1.55-.4-1.268-.656a11.8 11.8 0 01-4.341.048c1.7-.379-.59-.339 1.748-.277-2.206-.189-2.708-.537-5.076.057.806-.559-1.66-.7-2.708-.537l1.545.4a27.554 27.554 0 01-3.258-.018l.563-.731a16.94 16.94 0 00-6.194.238 17.967 17.967 0 01-2.76.286h-.335l-.427-.022c-.33-.018-.665-.044-1-.084a20.353 20.353 0 01-2.206-.387c-.792.255.264.343 1.237.445 1 .1 1.906.216 1.219.515a35.194 35.194 0 01-4.336-.559 16.981 16.981 0 00-.594 2.936c-.053.577-.07 1.1-.07 1.563 0 .229 0 .449.018.652 0 .092.009.229.018.273s.018.11.026.163a4.935 4.935 0 00.357 1.105 5.144 5.144 0 01.445 2.866c.26-.383.96-.74 1.2 1.484-.053 1.233-.431 1.906-.77 1.968-.189.04-.365-.114-.467-.458a1.4 1.4 0 01-.066-.269c-.022-.5.062-.735.15-.718-.1-.669-.207-1.55-.489-.726l.26.269a8.181 8.181 0 00-.167 1.145c-.119 1.184-.189 2.562-.5 2.074.216 1.343.379.88.506-.013-.277 2.377.031 3.857-.207 6.432.145-.436.453-.841.449-.405-.326 4.024.5 1.774.612 4.5-.4 1.55-.951-.555-.621 2.188-.269 1.677-.691.357-.9-.308a9.767 9.767 0 01.009 3.452c-.013.075-.022.15-.035.22l-.026.163-.018.092c0 .026-.009.022-.013.031l-.035.044a.8.8 0 01-.132.119 1.316 1.316 0 00-.176.123.9.9 0 00-.159-.189.292.292 0 01.07.225 1.635 1.635 0 00.167.1 1.692 1.692 0 00.357.137c-.088.128-.092.255-.264.1a.292.292 0 01-.053-.048 3.139 3.139 0 00.546.621c.229.233.5.484.242.718a2.745 2.745 0 00-1.105-.044h-.273a3.512 3.512 0 01-.414-.048.737.737 0 01-.555-.317c.409.031.7.04.924.035.119 0 .163-.018.2-.048.062-.053.018-.154-.022-.26-.075-.181-.1-.383.031-.484a.26.26 0 01-.062.009.375.375 0 01-.115-.022c-.167-.013-.339-.031-.519-.048-.114-.079.11-.145.321-.185a10.896 10.896 0 00-.634-.11 3.094 3.094 0 00-1.1 0c-.8.189-.63.889-2.9.876.4-.387-.748-.74-1.272-.656 1.3.009.621.652-.568.951-2.065-.3-2.241.225-3.324.189l1.233.145c-.418.392-1.448.339-2.884.462-.04-.1.07-.15.229-.189-1.484.229-3.262-.792-5.213-.414a.255.255 0 00-.057.009c-1.03-.264-.1-.731-1.008-.911-2.492.506-2.7-.537-5.323-.119.757.528.889.4-.96.911l4.314-.37-2.769.762c1.3.009 2.747-.33 3.526-.238-1.321.427-1.184.295-.559.731-1.783-.788-3.531.462-5.587-.07l.062-1.3a12.241 12.241 0 00-3.949.018l-.5.066-.251.031-.066.009-.1.009-.207.018c-.542.04-1.092.084-1.66.128-1.114.075-2.25.128-3.548.119 0 .581-.022 1.184-.053 1.814l.207-1.66.163.018a.178.178 0 01-.079.066 8.259 8.259 0 01.185 2.492v.233c-.009.414-.022.845-.026 1.277q0 .383.013.753c0 .123.013.242.018.361l.013.172.018.119c-.436-.123-.594.691-.863 1.246.079-.018.119.158.145.436.026.114.04.255.07.423a2.328 2.328 0 00.621 1.215 1.088 1.088 0 01-.224.172 7.708 7.708 0 01-.792-.348 1.271 1.271 0 00-.8.092c-.057.026-.114.057-.172.088a.443.443 0 01-.145.048l-.181.053c-.242.075-.471.154-.7.233a7.74 7.74 0 01-3.364.577c.938-.471-.48-.779 1.611-1.118-1.043 0-1.977-.084-1.994.216a.9.9 0 00-.357-.053c-.524 0-1.365.207-2.135.3a3.618 3.618 0 01-1.114 0 .939.939 0 01-.238-.07 1.335 1.335 0 00-.136.07 2.1 2.1 0 01-1.616.537.112.112 0 01-.031-.167c-.233.181-1.717.282-.77.726a13.468 13.468 0 00-5.146-.621c-2.487.031-5.028.216-6.613-.445-1.136.07-2.386.145-3.614.2-.612.022-1.219.048-1.8.07l-.85.026c-.308 0-.6.013-.885.018.088-.066.088-.119.137-.15a.553.553 0 01.339-.022c-.079-.009-.132-.022-.229-.026s-.194-.013-.286-.022c-.185-.009-.357-.013-.515-.018a6.888 6.888 0 00-.81.044 2.424 2.424 0 00-.938.291 2.6 2.6 0 01-1.594.6 7.668 7.668 0 01-.07 1.418c-.176.383-.286.471-.361.343a2.593 2.593 0 01-.128-.81c-.04-.7-.026-1.492-.159-.9-.713-.317-.665 1.365-.541 3.205.062 1.07.141 1.536.154 2.21a4.861 4.861 0 01-.251 1.809l-.084-.528c-.489 1.664.542 4.063.44 6.784 0 0-.128-.132-.216-.018.726 1.862.969 5.384 1.171 8-.559-.814-.295-1.189-.863-.691.079 1.175.911-.343 1.07 2-.3.762-.572 2.452-1.18 2.677l-.035-2.21c-.784 1.131.031 2.857-.106 4.024l-.343-.15c.11 3.385.973 3.434.911 7.07l.26-.374c.858 1.99-.48 1.669.158 3.65l-.872.6c.211 1.312.841 4.592 1 6.947-.643-1.334-.973-4.085-1.356-5.789 0 1.3.066 4.42.493 5.1a4.6 4.6 0 01-.163-1.7 15.989 15.989 0 011 6.287c-.55-.15-.788.52-.9 1.558 0 .066-.013.132-.018.2 0 .1-.013.2-.018.3-.009.207-.018.418-.031.638-.009.44-.022.907-.035 1.382l-.066 2.985a16.05 16.05 0 014.935.665l.361-.031.225-.026.431-.044q.429-.04.858-.066c.572-.04 1.145-.053 1.721-.057 1.149 0 2.311.044 3.5.11 2.369.132 4.829.33 7.5.277-1.893-1.308 1.558-.035 1.233-1.382a4.884 4.884 0 011.823.022l-.18-.04.189.048 3.768.8c.894.392-1.184.3-1.07.6 2.725.106 1.145.572 2.945.929-.37-.48.947-.691 2.5-.506l-2.188-.621c3.808-.718 3.293 1.131 7.128.418l-1.215.427c1.972-.251 7.264.009 9.2-1.074.348.154.81.524-.057.621 4.706.163 10.473-1.149 14.132-.484l-.357.33c.876-.1 1.528-.621 2.628-.291-.057.136-.357.33.053.348a10.738 10.738 0 013.5-.383l-.995.37a21.978 21.978 0 007.009-.568 27.622 27.622 0 013.883-.559c-.009.969 3.6 1.286 5.406 1.44l-.066.136a47.855 47.855 0 006.414-.313c1.633-.181 3.218-.409 4.9-.6l.321-.04c.387-.044.784-.084 1.184-.123l.379-.04.832-.066a17.207 17.207 0 004.3.608c3.443.167 7.775.031 11.05.423-.757-.176.123-.757 1-.854 1.087.185 2.954-.568 3.029.07a.429.429 0 01-.009.145l-.392-.018h-.022c.876.867 3.253.638 5.111.66l.3-1.162c4.865 1.691 12.745-.621 15.4.894 1.175-.291 2.628-.286 3.791-.577l-.062.621a83.188 83.188 0 008.893.088l-.819.449c2.267.04 2.862-1.8 4.957-1.836l.625.929c3.958-.013 7.96.806 11.869-.04-.062.136-.181.405-.819.445 1.8.022 6.855.59 6.573-.528.431.63 4.147-.057 6.168-.405l-.33.612c.9-.392 1.365-.643 1.919-.819a6.416 6.416 0 01.964-.225c.2-.031.4-.062.674-.088.335-.026.713-.053 1.14-.084.757.075.885.414 0 .365a5.7 5.7 0 001.986-.088 5.723 5.723 0 011.69-.269 11.268 11.268 0 01.071-1.325c.132.511.264 1.052.392 1.624a14.926 14.926 0 00-.119-2.822c-.106-.564-.273-.982-.5-1.761-.018-.106-.031-.22-.04-.339s-.018-.22-.026-.339a9.549 9.549 0 01-.009-.616 9.959 9.959 0 01.128-1.308 2.871 2.871 0 01.656-1.721 3.38 3.38 0 01-.634-2.6c.211-.163.343.273.405.5.418-3.421-.713-5.089-.11-7.44a.517.517 0 00.365-.4c-.013 2.492-.044 4.535-.084 4.7.559-.031.66-2.184 1.435-.449-.429-1.766-1.351-4.777-1.087-6.917zm.5-4.557c.088.731-.035.973-.163 1.074a22.424 22.424 0 00-.075-1.277c-.022-.018-.048-.062-.075-.084a.838.838 0 01.313.286zm-25.2-100.755a.968.968 0 01.211.1h-.933c.224-.035.462-.066.722-.1z" fill="#99b8bf"/><path data-name="Tracé 68" d="M223.926 102.107a.164.164 0 01-.11.053.365.365 0 01.11-.053z" fill="#7f77ff"/><path data-name="Tracé 69" d="M212.215 103.584c.034-.005.068-.013.1-.02a2.946 2.946 0 00-.1.02z" fill="#7f77ff"/><path data-name="Tracé 70" d="M334.033 141.721a2.36 2.36 0 01-.045-.3c-.055.149-.1.29-.139.434l.194.258z" fill="#7f77ff"/><path data-name="Tracé 71" d="M263.115 65.782a.623.623 0 01.088-.2c-.03.065-.049.065-.074.106z" fill="#7f77ff"/><path data-name="Tracé 72" d="M293.884 41.628c.2 0 .424.292.381 2.4l.133-2.59.972.047c-.785-.239-2.081-.56-.287-.618l-1.422-.166c-.148 1.242.024.933.223.927z" fill="#7f77ff"/><path data-name="Tracé 73" d="M293.918 52.401c-.056-.493-.142-.507-.232-.449s-.182.189-.25.127c.218.584.269.868.482.322z" fill="#7f77ff"/><path data-name="Tracé 74" d="M251.056 71.118l.153-.563c-1.175.081-.011.218-.153.563z" fill="#7f77ff"/><path data-name="Tracé 75" d="M230.731 70.103l.1-.008.181-.016.723-.062.513-.081-.98.1-.49.051-.8.051.6-.031z" fill="#7f77ff"/><path data-name="Tracé 76" d="M166.341 111.552l.355.693c.794-.123.96-.903-.355-.693z" fill="#7f77ff"/><path data-name="Tracé 77" d="M151.847 147.054a3.306 3.306 0 00-.229 2.6 23.962 23.962 0 00.229-2.6z" fill="#7f77ff"/><path data-name="Tracé 78" d="M270.274 170.458l1.746-.193-.82-.039z" fill="#7f77ff"/><path data-name="Tracé 79" d="M278.837 113.629a66.836 66.836 0 01-2.223 15.814c-5.336 19.723-19.934 34.075-27.8 40.639a17.209 17.209 0 01-4.3-.608l-.832.066-.379.04c-.4.04-.8.079-1.184.123l-.321.04a99.926 99.926 0 01-5.446-20.608 74.053 74.053 0 011.286-30.227 65.878 65.878 0 015.067-12.948c10.231-19.855 27.925-31.685 27.925-31.685s8.736 17.949 8.207 39.354z" fill="#fff"/><path data-name="Tracé 80" d="M225.013 91.453c-.013.176-.026.339-.048.537a.846.846 0 01.048-.537z" fill="#fff"/><path data-name="Tracé 81" d="M212.316 103.565a2.426 2.426 0 00.462-.136c.322.083-.114.079-.462.136z" fill="#fff"/><path data-name="Tracé 82" d="M212.928 103.085l.709.079a4.335 4.335 0 01-.709-.079z" fill="#fff"/><path data-name="Tracé 83" d="M223.516 101.926a.376.376 0 00-.075-.013c.066-.009.132-.022.185-.026.009-.009.013-.013.018-.013s0 0 0 .013 0 .009-.009.013-.07.018-.119.026z" fill="#fff"/><path data-name="Tracé 84" d="M223.926 102.107a.164.164 0 01-.11.053.365.365 0 01.11-.053z" fill="#fff"/><path data-name="Tracé 85" d="M249.064 149.099v.026a99.8 99.8 0 01-5.375 20.414l-.379.04c-.4.04-.8.079-1.184.123l-.321.04c-1.677.189-3.262.418-4.9.6-7.788-6.441-22.7-20.912-28.105-40.9a66.594 66.594 0 01-2.228-15.818 81.036 81.036 0 01.436-10.456c1.95-.379 3.729.643 5.213.414-.159.04-.269.092-.229.189 1.435-.123 2.465-.07 2.884-.462l-1.233-.145c1.083.035 1.259-.493 3.324-.189 1.189-.3 1.867-.942.568-.951.524-.084 1.677.269 1.272.656 2.272.013 2.1-.687 2.9-.876h1.1c.185.026.4.062.634.11-.211.04-.436.106-.321.185.181.018.352.035.519.048a.376.376 0 00.115.022.26.26 0 00.062-.009c-.132.1-.106.3-.031.484.04.106.084.207.022.26-.035.031-.079.048-.2.048-.22 0-.515 0-.925-.035a.737.737 0 00.555.317 3.526 3.526 0 00.414.048h.273a2.744 2.744 0 011.105.044c.26-.233-.013-.484-.242-.718a3.136 3.136 0 01-.546-.621.288.288 0 00.053.048c.172.159.176.031.264-.1a1.691 1.691 0 01-.357-.137h.321v-.7c.013-.07.022-.145.035-.22a9.767 9.767 0 00-.009-3.452c.211.665.634 1.986.9.308-.33-2.743.22-.638.621-2.188-.115-2.725-.938-.475-.612-4.5 0-.436-.3-.031-.449.405.238-2.575-.07-4.055.207-6.432-.128.894-.291 1.356-.506.013.313.489.383-.889.5-2.074l.313.3c.154.15.313.3.467.458a88.4 88.4 0 0116.7 22.232 65.475 65.475 0 015.072 12.943 74.078 74.078 0 011.303 30.208z" fill="#fff"/><path data-name="Tracé 86" d="M187.948 109.86a1.084 1.084 0 01-.273.392c.133-.291.209-.379.273-.392z" fill="#3f3d56"/><path data-name="Tracé 87" d="M176.436 112.515a.062.062 0 01-.035.048c.017-.026.035-.048.035-.048z" fill="#3f3d56"/><path data-name="Tracé 88" d="M242.121 169.702l-.321.04c-1.677.189-3.262.418-4.9.6a47.838 47.838 0 01-6.414.313l.066-.136c-1.805-.154-5.415-.471-5.406-1.44a27.623 27.623 0 00-3.883.559c-9.523-3.1-20.612-8.347-29.686-17.178-12.789-12.446-18.561-29.074-21.092-39.789a13.469 13.469 0 015.146.621c-.947-.445.537-.546.77-.726a.113.113 0 00.031.167 2.1 2.1 0 001.616-.537h3.623v-.3a.9.9 0 01.357.053c.018-.3.951-.22 1.994-.216-2.091.339-.674.647-1.611 1.118a7.74 7.74 0 003.363-.577c.225-.079.453-.159.7-.233l.18-.053a.443.443 0 00.145-.048c.057-.031.114-.062.172-.088a1.271 1.271 0 01.8-.092 7.716 7.716 0 00.792.348 1.092 1.092 0 00.224-.172 2.328 2.328 0 01-.621-1.215c-.031-.167-.044-.308-.07-.423-.026-.277-.066-.453-.145-.436.269-.555.427-1.369.863-1.246l-.018-.119-.013-.172c0-.119-.013-.238-.018-.361q-.013-.37-.013-.753c0-.431.018-.863.026-1.277a86.758 86.758 0 0117.79 7.691 66.9 66.9 0 0113.177 9.892 74.082 74.082 0 0116.6 25.609 99.731 99.731 0 015.772 20.568z" fill="#3f3d56"/><path data-name="Tracé 89" d="M263.469 169.848h.022a.033.033 0 01-.018 0z" fill="#3f3d56"/><path data-name="Tracé 90" d="M316.783 101.931s-2.5 30.615-22.954 50.527c-9.157 8.915-20.361 14.176-29.941 17.262-.075-.638-1.941.114-3.029-.07-.876.1-1.757.678-1 .854-3.275-.392-7.607-.255-11.05-.423a17.208 17.208 0 01-4.3-.608l-.832.066-.379.04a100.047 100.047 0 015.758-20.48c3.434-8.528 8.668-17.861 16.6-25.578a66.811 66.811 0 0113.177-9.892c18.328-10.629 37.95-11.698 37.95-11.698z" fill="#3f3d56"/><path data-name="Tracé 91" d="M28.987 84.263s-6.132 12.264-15.608 15.051 22.855 0 22.855 0-1.672-8.919.557-10.034-7.804-5.017-7.804-5.017z" fill="#ffd6c5"/><path data-name="Tracé 92" d="M19.08 63.194c-.333-2.906 1.256-5.475 3.55-5.738h.078a3.349 3.349 0 00-.866-.014c-2.294.263-3.883 2.832-3.55 5.738.33 2.873 2.416 4.995 4.68 4.788-1.943-.286-3.602-2.239-3.892-4.774z" fill="#e2bc74"/><path data-name="Tracé 93" d="M21.136 67.133c-2.77-.938-4.416-3.471-3.675-5.658.008-.025.021-.047.03-.072a3.349 3.349 0 00-.382.777c-.741 2.187.9 4.72 3.675 5.658 2.739.927 5.548-.054 6.327-2.19-1.084 1.637-3.558 2.304-5.975 1.485z" fill="#e2bc74"/><path data-name="Tracé 94" d="M1.968 120.858l.819 23.611 12.821 30.1s-3.345 15.608 3.345 15.051.557-15.608.557-15.608l-6.132-31.774-1.115-26.2z" fill="#ffd6c5"/><path data-name="Tracé 128" d="M37.906 68.097a12.264 12.264 0 0112.263 12.264c0 3.278-3.592 8.672-3.592 8.672s-5.177 3.592-8.672 3.592a12.264 12.264 0 01.001-24.528z" fill="#ffd6c5"/><path data-name="Tracé 95" d="M47.94 101.543l-12.086-4.828s-2.408.369-9.1.926-9.659.032-9.659.032-14.31 4.985-13.753 7.773 6.689 46.825 9.477 44.6a16.728 16.728 0 014.46-2.787l30.659-2.787z" fill="#cfcce0"/><path data-name="Tracé 96" d="M5.575 104.33H3.761s-2.088 1.115-2.088 4.46-1.675 13.378-1.675 13.378h8.919z" fill="#cfcce0"/><path data-name="Tracé 97" d="M22.019 109.626l-6.733-10.879a1.522 1.522 0 00-1.482-.709l-1.756.219a1.522 1.522 0 00-1.281 1.905l3.447 12.8s5.451 22.621.217 34.723l-.217 5.413s-5.017 16.723-3.9 29.544 1.672 23.97 1.672 23.97-2.787 8.362-1.672 11.149a6.519 6.519 0 01.01 3.4 112.55 112.55 0 00-1.756 24.555l.073 2.708s-3.9 3.345-.557 3.9 13.936 1.672 13.936 1.672 2.23-3.9 1.115-4.46l3.345-18.4s5.574-7.8 5.017-12.821c0 0 1.672-8.362 0-12.264l.557-24.527 2.23 29.544-3.345 36.791s-4.46 3.345-1.672 4.46 20.068 6.689 20.068 3.9-1.115-3.9-1.115-3.9l7.247-75.255-3.9-31.217s-26.2-2.23-23.97-31.774c0 0 6.41-13.313 12.737-15.825a.364.364 0 00-.026-.691l-2.569-.734a.352.352 0 00-.214 0c-1.118.394-10.783 3.881-15.506 12.803z" fill="#2f2e41"/><path data-name="Tracé 98" d="M34.839 251.773l-.089.8a36.9 36.9 0 01-4.874 14.459c-1.248 2.145-2.2 4.568-1.726 6.48 1.115 4.46.557 6.132.557 6.132h8.919v-1.672l4.98 1.358a5.515 5.515 0 003.382-.1 3.039 3.039 0 002.23-2.927c0-1.394-1.065-2.69-2.307-3.729a16.557 16.557 0 01-5.435-8.306l-.062-.229 3.345-12.264z" fill="#2f2e41"/><path data-name="Tracé 99" d="M11.706 252.052l-.089.8a36.9 36.9 0 01-4.874 14.459c-1.248 2.145-2.2 4.568-1.726 6.48 1.115 4.46.557 6.132.557 6.132h8.919v-1.672l4.98 1.358a5.516 5.516 0 003.382-.1 3.039 3.039 0 002.23-2.927c0-1.394-1.065-2.69-2.307-3.729a16.557 16.557 0 01-5.435-8.306l-.062-.229 3.345-12.264z" fill="#2f2e41"/><path data-name="Tracé 100" d="M40.382 82.43s2.993-6.186 6.395-6.494c0 0 6.783-1.119 5.715-3.265 0 0-.518-6.884-9.111-6.617 0 0-10.149-5.5-13.556-3.253s-10.994 13.016-7.789 19.453a6.912 6.912 0 002.341 4.064c3.5 2.954 9.968 4.633 12.017 1.781 3.054-4.251 3.988-5.669 3.988-5.669z" fill="#e2bc74"/><ellipse data-name="Ellipse 22" cx="5.296" cy="4.181" rx="5.296" ry="4.181" transform="rotate(-52.84 74.747 15.956)" fill="#e2bc74"/><path data-name="Tracé 101" d="M27.964 63.927a6.19 6.19 0 00-2.78 2.1 6.305 6.305 0 00-1.218 2.791 6.19 6.19 0 002.78-2.1 6.305 6.305 0 001.218-2.791z" fill="#6c63ff"/><path data-name="Tracé 102" d="M70.524 170.115l-.708-.945 5.14-3.852a4.343 4.343 0 001.7-4l-2.546-20.561a8.558 8.558 0 013.354-7.883l5.6-4.2a5.011 5.011 0 017.007 1l1.3 1.731-.945.708-1.3-1.731a3.829 3.829 0 00-5.354-.767l-5.6 4.2a7.375 7.375 0 00-2.89 6.793l2.546 20.561a5.526 5.526 0 01-2.165 5.09z" fill="#cfcce0"/><path data-name="Tracé 103" d="M72.358 171.857l4.191-5.519-1.416-1.889-6.283 2.726-27.428 18.952 4.855 6.479z" fill="#cfcce0"/><rect data-name="Rectangle 31" width="13.157" height="47.483" rx="6.578" transform="rotate(-36.846 243.784 -59.21)" fill="#e6e6e6"/><path data-name="Tracé 104" d="M121.243 161.851l-.759-1.012-.152-.2a3.272 3.272 0 01-.656 4.58l-5.293 3.966a3.272 3.272 0 01-4.58-.656l.152.2.759 1.012a3.272 3.272 0 004.58.656l5.293-3.966a3.272 3.272 0 00.656-4.58z" opacity=".2"/><path data-name="Tracé 105" d="M105.544 140.224c-.046-.045-.085-.082-.086-.062.044.053.073.067.086.062z" fill="#7f77ff"/><path data-name="Tracé 106" d="M104.711 138.909a.122.122 0 00-.046-.079z" fill="#7f77ff"/><path data-name="Tracé 107" d="M110.698 147.211c-.049.016.045.12.107.221z" fill="#7f77ff"/><path data-name="Tracé 108" d="M113.287 150.544l.044.059a.4.4 0 00.085.013z" fill="#7f77ff"/><path data-name="Tracé 109" d="M114.923 152.984a.221.221 0 01.16.069.159.159 0 00.053-.079c-.037-.059-.153-.002-.213.01z" fill="#7f77ff"/><path data-name="Tracé 110" d="M119.999 160.035l-.025.043a.333.333 0 00.05.051z" fill="#7f77ff"/><path data-name="Tracé 111" d="M103.104 136.473l.006.011c.054.055.029.023-.006-.011z" fill="#7f77ff"/><path data-name="Tracé 112" d="M88.24 141.327c-.085-.3.4.295.238-.134-.015.065-.398-.203-.238.134z" fill="#7f77ff"/><path data-name="Tracé 113" d="M99.147 131.322a.186.186 0 000 .086c.004-.009.008-.035 0-.086z" fill="#7f77ff"/><path data-name="Tracé 114" d="M97.072 129.831a.718.718 0 00-.186.168.127.127 0 00.034-.012.412.412 0 01.152-.156z" fill="#7f77ff"/><path data-name="Tracé 115" d="M95.011 131.771a.476.476 0 00.053-.013l.057-.06z" fill="#7f77ff"/><path data-name="Tracé 116" d="M120.121 160.139c-.07.085-.206.195-.268.158l.122-.218-.025-.032.023-.03-1.748-2.332h.046l-.08-.049-.222-.3c.028-.006.064 0 .117.055-.09-.274-.2-.154-.257-.4 0-.03.012-.026.032-.012l-.2-.18c.063.018.079-.115.156.033-.2-.449-.576-.535-.571-.765l.033.025c-.336-.37-.253-.17-.369-.172l-.187-.249.048-.324-.149.03c-.037-.058-.11-.173-.051-.186-.229-.148-.022.071-.182.005-.1-.34-.593-.694-.463-.885-.155-.032.125.3-.145.062.128-.222-.277-.3-.372-.609.153 0 .273.269.178-.038-.274-.023-.317-.5-.5-.678-.138.088-.387-.4-.687-.712a9.473 9.473 0 00-.6-1.051l.029-.007c-.178.037-.4-.31-.606-.528.086-.05.15-.03.282.073l-.169-.224a.608.608 0 01-.281-.209l.141-.018a5.371 5.371 0 01-.79-.949c-.074.032-.063.245-.161.269l-.153-.2a.115.115 0 01.132.032c-.033-.03-.135-.093-.166-.18l.206.1c-.094-.2-.139-.039-.236-.185.073-.051-.027-.142.045-.164.034.031.062.144.13.177a1.174 1.174 0 01-.2-.494c-.03.044-.1.072-.192-.037-.229-.3.009-.166-.085-.368-.1-.035-.2-.265-.306-.19-.065-.088-.028-.141-.024-.2-.163-.12-.555-.713-.537-.454l.022.045-.024-.022a16.8 16.8 0 01-1.152-1.568l.036-.026a7.234 7.234 0 00-.762-.808c-.066-.089-.092-.258-.021-.252a1.649 1.649 0 01-.448-.581c.235.184 0-.121.223.2-.193-.321-.187-.432-.524-.679.173.041-.054-.311-.187-.432l.092.258a3.831 3.831 0 01-.328-.443l.177-.013c-.312-.72-1.073-.916-1.178-1.563-.2-.1.19.376-.017.3a5.022 5.022 0 01-.307-.8c-.222-.435-.444-.228-.7-.665 0 .083-.082.218-.347-.053-.195-.293-.08-.48.088-.328.054.065.065.107.048.115.084.079.191.185.154.039h-.07c-.061-.172-.355-.555-.217-.517-.2-.182-.138-.038-.042.136-.208-.407-.42-.565-.657-.967.021.077.011.169-.032.11-.355-.584-.261-.179-.556-.534-.092-.258.212-.041-.121-.372-.126-.26.077-.133.18-.069a2.6 2.6 0 01-.549-.877l.168.152a1.728 1.728 0 01-.232-.268l-.009.166c-.063-.116-.13-.2-.093-.229-.137-.066-.08.189-.317.032-.061-.172-.365-.39-.288-.523.29.468.078-.134.374.224a1.023 1.023 0 01-.2-.265c0-.025.035 0 .063.021-.213-.5-.273-.1-.6-.534.105.007.046-.192-.021-.252.13.176-.044.164-.213.04-.159-.316-.264-.275-.368-.426l.1.184c-.106-.009-.2-.154-.368-.334.037-.054.167.151.137.065-.274-.132-.249-.575-.551-.819-.061-.172.11-.1.048-.248-.336-.275-.186-.431-.52-.734-.009.167.025.169-.246-.018l.5.538-.405-.281c.131.177.332.331.4.447-.2-.126-.169-.123-.177.014-.052-.337-.433-.421-.554-.765l.219-.151c-.219-.489-.666-.662-1.02-1.245l.094.2c-.139-.01-.263-.327-.429-.477.083-.037.027-.166.015-.275-.046.049-.293-.4-.472-.344l-.088-.313c-.27-.44-.633-.423-.985-.943.074.018.072-.051.086-.093s.047-.054.231.135c-.167-.225-.318-.453-.332-.369a.394.394 0 00-.045-.079l-.031-.04c-.011-.012-.026.022-.04.033l-.19.234a1.245 1.245 0 01-.356.358c-.062.116-.042.226-.225.394-.032.006-.027-.035-.027-.035.008.055-.2.271-.005.224-.58.173-1.086 1.052-1.6 1.187-.264.277-.59.6-.85.833 0-.035-.028-.034.028-.07-.416.249-.056.388-.535.666-.306.068.173-.245 0-.175-.245-.177-.478.452-.873.545l.058-.069c-.278.1-.463.512-.839.772 0 0 0-.034-.025-.037a4.317 4.317 0 01-.939.991c.045-.172.128-.165-.008-.211-.151.127.156.118-.147.373-.141.023-.4.143-.506.06l.3-.218c-.245-.02-.39.278-.568.364l-.019-.072c-.454.338-.368.484-.887.807l.082.011c-.189.328-.29.064-.5.351l-.178-.1a8.628 8.628 0 01-.9.766 5.571 5.571 0 01.7-.726 2.492 2.492 0 00-.686.516c.068-.059.141-.152.23-.172a2.122 2.122 0 01-.827.7c-.032-.177-.41-.006-.868.218l-.173.085-.088.043c-.028.015-.075.025-.037.055.071.1.138.2.2.3a1.382 1.382 0 01.222.5l.288.328c.064.073.125.149.183.226.118.155.227.318.336.486.218.337.436.694.715 1.049.022-.417.164.206.351 0 .138.155.183.222.181.249l-.017-.041.017.044.25.608c.026.169-.168-.124-.206-.071.259.381.022.225.147.512.041-.109.209.044.336.276l-.12-.372c.5.427.149.584.654 1.016l-.192-.112c.24.236.735.983 1.107 1.112.01.066 0 .174-.107.068a19.893 19.893 0 011.512 1.852l-.09-.008c.1.107.256.131.313.32-.028.009-.09-.008-.052.05a1.515 1.515 0 01.417.426l-.161-.089c.395.674.861.842 1.289 1.335-.16.117.155.645.312.908l-.029.008a17.457 17.457 0 001.615 1.752 18.751 18.751 0 001.387 2.2c-.048-.124.136-.076.241.031.085.181.435.351.271.435l-.039-.058c-.054.225.225.519.41.773l.221-.1c.216.865 1.393 1.647 1.414 2.192.167.123.313.32.479.442l-.108.068a11.657 11.657 0 00.887 1.214l-.156-.056c.223.312.584.167.8.445l-.088.2a7.94 7.94 0 001.21 1.6c-.029.008-.085.025-.156-.057.185.255.627 1.051.767.8-.131.108.4.562.677.806l-.134.03a1.391 1.391 0 01.643.443c.047.091-.027.131-.082 0 .149.308.252.138.443.5l-.155-.073a.672.672 0 00.406.331c.171.144.368.544.308.653a.5.5 0 01.367.275c-.018.048-.084 0-.116-.018.278.514.632.6.772.993a.1.1 0 00-.02.1c-.273-.369-.489-.669-.461-.647-.092.069.114.378-.191.238a3.153 3.153 0 01.879.8.166.166 0 010 .062l-.033-.022a.555.555 0 00.152.172 1.831 1.831 0 00.152.261c-.051.092.214.371.321.522.092-.088.221.118.169-.126.01.029-.033-.019-.111-.114a.407.407 0 00-.058-.055h.016l-.283-.363a.635.635 0 01.34.374c.122.027.252.061.318.084.011.308.227.756.181.876.2.2.407.464.616.69a4.038 4.038 0 00.321.312 1.177 1.177 0 00.369.267.408.408 0 01.116.2c.018.066.046.059.079.078a.432.432 0 01-.1.045l-.067-.073a.447.447 0 00-.115-.1c.089.059.15.277.323.14l.448-.182a1.5 1.5 0 00.3-.15c.064-.045.106-.09.109-.135.407-.081-.161.228.354-.006l-.052.076c1.15-.173 1.486-1.084 2.708-1.38-.085.023-.127.035-.156.019a31.253 31.253 0 003.545-2.368c.334-.216.29-.332.414-.55l.154.043.2-.39c.332-.482.955-.466 1.3-1.155l-.132.007c.2-.178.513-.657.565-.553a.164.164 0 01.089-.173l.059.04c.112-.189.214-.384.321-.574.356-.356.175.245.641-.325.125-.231.289-.737.188-.684zm-2.418-3.184a.115.115 0 010 .038l-.089-.119.086.081zm-10.918 9.074h.021a.156.156 0 01-.08 0c-.088-.088-.093-.136-.082-.165.037.045.081.1.141.163z" fill="#99b8bf"/><path data-name="Tracé 117" d="M106.996 166.109a.345.345 0 01.038.035.716.716 0 00-.021-.076l-.058-.011z" fill="#7f77ff"/><path data-name="Tracé 118" d="M110.847 147.518a.1.1 0 01.006.038.106.106 0 010-.023z" fill="#7f77ff"/><path data-name="Tracé 119" d="M116.572 154.965c-.246-.571-.013.165-.374-.349l.258.406c-.011-.097-.024-.223.116-.057z" fill="#7f77ff"/><path data-name="Tracé 120" d="M115.449 153.334c-.134-.1-.166-.129-.085.051.173.192.055-.045.085-.051z" fill="#7f77ff"/><path data-name="Tracé 121" d="M108.924 144.789l.108-.048c-.133-.149-.037.025-.108.048z" fill="#7f77ff"/><path data-name="Tracé 122" d="M107.211 142.1l-.232-.24.167.18z" fill="#7f77ff"/><path data-name="Tracé 123" d="M95.279 131.379l.139.064c.081-.108-.006-.245-.139-.064z" fill="#7f77ff"/><path data-name="Tracé 124" d="M88.879 136.404a2.711 2.711 0 00.393-.19.477.477 0 00-.393.19z" fill="#7f77ff"/><path data-name="Tracé 125" d="M97.923 154.387l.208.212-.076-.115z" fill="#7f77ff"/><path data-name="Tracé 126" d="M40.431 119.183l.819 23.611 12.821 30.1s-3.345 15.608 3.345 15.051.557-15.608.557-15.608l-6.132-31.774-1.115-26.2z" fill="#ffd6c5"/><path data-name="Tracé 127" d="M45.153 102.658l.306-2.106 2.481.991 7.8 12.263-16.166 8.362z" fill="#cfcce0"/></svg>