<svg xmlns="http://www.w3.org/2000/svg" width="537.418" height="286"><g transform="translate(.989 -.035)"><path data-name="Tracé 1" d="M495.239 226.183q-.9 1.935-1.791 3.819-1.393 2.926-2.751 5.739c-.4.831-.805 1.646-1.2 2.462a771.27 771.27 0 01-12.1 23.684 37.785 37.785 0 01-32.937 19.975l-78.269.852h-.826l-6.705.076-5.739.062-17.6.191h-.712l-8.96.1h-.274l-55.224.6-49.294.516-5.734.062-35.612.387h-.041l-23.1.248h-.248l-73.03.79-21.847.237a45.422 45.422 0 01-5.569-.279 45.57 45.57 0 01-1.884-.253 45.1 45.1 0 01-26.471-14.214 102.988 102.988 0 01-20.83-35.488q-1-2.833-1.858-5.739c-15.9-53.753 3.484-123.1 38.373-169.513q2.193-2.911 4.459-5.677l.036-.041c10.73-13.171 22.761-24.175 35.576-32 22.709-13.889 47.87-17.8 72.617-6.142 20.939 9.868 40.489 14.508 59.441 15.767 1.915.124 3.83.217 5.734.274 43.472 1.368 84.214-14.3 132.058-24.407 1.9-.4 3.814-.8 5.739-1.177C392.797.302 430.659-3.28 475.684 4.25a97.593 97.593 0 0113.811 3.3q2.978.96 5.739 2.064c21.491 8.743 33.212 24.9 38.192 45.139q.707 2.818 1.223 5.734c8.836 48.688-17.026 117.754-39.41 165.696z" fill="#f2f2f2"/><path data-name="Tracé 2" d="M256.756 230.002a49.145 49.145 0 01-.965 5.739h48.36v-5.739zm-40.386 32.417l5.734-.046v-14.181c-1.966-.088-3.881-.176-5.734-.268zM96.157 230.002v5.739h102.449v-5.739zM534.689 54.771h-38.192V9.616q-2.761-1.12-5.739-2.064v47.219H359.902v-47.7a385.35 385.35 0 00-5.739 1.177v46.523H222.105V32.656c-1.9-.057-3.819-.15-5.734-.274v22.389H84.312v-32c-12.815 7.824-24.846 18.828-35.576 32H48.7v.041q-2.271 2.787-4.459 5.677H48.7v169.513H5.863q.857 2.906 1.858 5.739h40.974v48.319a44.891 44.891 0 006.3 1.44c.624.1 1.254.181 1.884.253a45.422 45.422 0 005.569.279l21.847-.237v-50.064H216.37v48.623l5.734-.062v-48.55h132.059v47.15l5.739-.062v-47.088h130.83v2.462c.392-.815.795-1.631 1.2-2.462q1.357-2.813 2.751-5.739.893-1.879 1.791-3.819V60.51h39.442q-.525-2.936-1.227-5.739zM84.312 230.002V60.492H216.37v169.51zm137.8 0V60.492h132.051v169.51zm268.627 0H359.902V60.492h130.83z" opacity=".1"/><path data-name="Tracé 3" d="M445.69 275.441v6.71l-78.408.723-.836.016-29.8.273-.712.01-9.058.077h-.268l-55.214.511-90.635.841h-.077l-23.045.217-.248.005-102.4.939v-7.741l24.077-14.451 48.308-.4 1.032-.005.341-.005 1.032-.015 23.194-.191 1.037-.005.33-.005 1.032-.005 7.437-.062.2-.005 18.348-.155h.15l143.17-1.208 3.5-.026h.351l2.673-.026 19.432-.16 1.032-.015.955-.01h.5l6.044-.046 1.2-.015 1.605-.01 5.032-.046 7.984-.067 1.032-.01 1.8-.01h.335l38.559-.33z" fill="#65617d"/><path data-name="Tracé 4" d="M445.69 275.441v6.71l-78.408.723-.836.016-29.8.273-.712.01-9.058.077h-.268l-55.214.511-90.635.841h-.077l-23.045.217-.248.005-102.4.939v-7.741l24.077-14.451 48.308-.4 1.032-.005.341-.005 1.032-.015 23.194-.191 1.037-.005.33-.005 1.032-.005 7.437-.062.2-.005 18.348-.155h.15l143.17-1.208 3.5-.026h.351l2.673-.026 19.432-.16 1.032-.015.955-.01h.5l6.044-.046 1.2-.015 1.605-.01 5.032-.046 7.984-.067 1.032-.01 1.8-.01h.335l38.559-.33z" opacity=".2"/><path data-name="Tracé 5" d="M153.059 249.641v12.64a3.163 3.163 0 01-1.806 2.859 3.1 3.1 0 01-1.29.31l-18.012.382a3.1 3.1 0 01-1.393-.294 3.159 3.159 0 01-1.843-2.875v-13.022z" fill="#3f3d56"/><path data-name="Tracé 6" d="M153.059 249.641v12.64a3.163 3.163 0 01-1.806 2.859 3.1 3.1 0 01-1.29.31l-18.012.382a3.1 3.1 0 01-1.393-.294 3.159 3.159 0 01-1.843-2.875v-13.022z" opacity=".1"/><path data-name="Tracé 7" d="M154.091 249.641v12.64a3.164 3.164 0 01-1.806 2.859 3.1 3.1 0 01-1.29.31l-18.012.382a3.1 3.1 0 01-1.393-.294 3.159 3.159 0 01-1.843-2.875v-13.022z" fill="#3f3d56"/><path data-name="Rectangle 13" fill="#3f3d56" d="M351.67 249.635h24.345v16.258H351.67z"/><path data-name="Rectangle 14" opacity=".1" d="M351.67 249.635h24.345v16.258H351.67z"/><path data-name="Rectangle 15" fill="#3f3d56" d="M350.637 249.635h24.345v16.258h-24.345z"/><path data-name="Tracé 8" d="M154.086 249.635v2.565l-24.345.65v-3.215z" opacity=".1"/><path data-name="Tracé 9" d="M197.058 161.231v86.81a2.064 2.064 0 01-1.987 2.039l-98.913 2.632h-.026a2.064 2.064 0 01-2.039-2.039v-89.442a2.064 2.064 0 012.039-2.039h98.888a2.064 2.064 0 012.038 2.039z" fill="#65617d"/><path data-name="Tracé 10" d="M96.157 159.192v93.52h-.026a2.064 2.064 0 01-2.039-2.039v-89.442a2.064 2.064 0 012.039-2.039z" opacity=".1"/><path data-name="Tracé 11" d="M100.668 164.735h91.61v76.514l-91.61 2.064z" fill="#99b8bf"/><path data-name="Tracé 12" d="M374.983 249.635v3.308l-24.345-.65v-2.658z" opacity=".1"/><path data-name="Tracé 13" d="M407.115 161.231v89.441a2.064 2.064 0 01-2.064 2.039l-98.934-2.632a2.065 2.065 0 01-1.987-2.039v-86.81a2.065 2.065 0 012.039-2.039h98.887a2.065 2.065 0 012.059 2.039z" fill="#65617d"/><path data-name="Tracé 14" d="M407.115 161.231v89.441a2.064 2.064 0 01-2.064 2.039v-93.519a2.064 2.064 0 012.064 2.039z" opacity=".1"/><path data-name="Tracé 15" d="M400.53 164.735h-91.61v76.514l91.61 2.064z" fill="#99b8bf"/><path data-name="Tracé 16" d="M301.571 161.231v86.81a2.064 2.064 0 01-1.987 2.039l-98.913 2.632a2.064 2.064 0 01-2.064-2.039v-89.442a2.064 2.064 0 012.039-2.039h98.887a2.065 2.065 0 012.038 2.039z" fill="#65617d"/><path data-name="Tracé 17" d="M205.181 164.735h91.61v76.514l-91.61 2.064z" fill="#99b8bf"/><path data-name="Tracé 18" d="M445.69 275.441v6.71l-78.408.723-.836.015-29.8.274-.712.01-9.058.077h-.268l-55.214.511-90.635.841h-.077l-23.045.217-.248.005-102.4.939v-7.742l104.518-.686h.248l21.156-.144h.1l146.1-.965h.15l.088-.005h.243l2.472-.016h.754l38.445-.258 2.271-.01.506-.005z" opacity=".1"/><circle data-name="Ellipse 15" cx="26.492" cy="26.492" r="26.492" transform="translate(225.227 127.404)" fill="#ffd6c5"/><path data-name="Tracé 19" d="M278.216 194.675s-51.353 6.193-46.45 0c1.775-2.24 2.266-8.877 2.168-16.438-.031-2.3-.114-4.676-.232-7.045-.568-11.355-1.935-22.451-1.935-22.451s44.9-21.161 39.741-4.387c-2.064 6.777-1.388 16.294.181 25.228.459 2.606.991 5.161 1.548 7.587a177.906 177.906 0 004.98 17.507z" fill="#fbbebe"/><path data-name="Tracé 20" d="M261.458 192.569c5.94-1.1 12.232-3.1 17.821-.795 1.471.6 2.823 1.486 4.33 1.992s3.159.63 4.728.986c5.512 1.249 9.982 5.445 12.851 10.322s4.356 10.395 5.811 15.855l3.561 13.331c3.1 11.587 6.193 23.272 6.911 35.251a1258.052 1258.052 0 01-129.462.738c2.808-5.337 5.677-11 5.44-17.032s-3.711-11.984-2.457-17.93c.8-3.788 3.391-6.911 4.975-10.436 4.516-10.075 1-23.633 8.939-31.3 3.572-3.448 8.774-4.753 13.744-4.588 6.338.212 12.825 2.188 19.1 3.154 8.029 1.221 15.616 1.943 23.708.452z" fill="#8d8d8d"/><path data-name="Tracé 21" d="M329.016 249.95l-.052.738v.052l-.088 1.187-.686 9.553-.831 11.509-.237 3.241-.516 6.937v.088l-55.224.516-90.625.981v.434h-.072v-.574l.232-7.411.444-14.482.382-12.278.036-1.223a5.435 5.435 0 015.894-5.249c2.436.206 5.6.459 9.383.728l1.548.114c21.847 1.517 62.223 3.479 102.965 1.032.857-.046 1.719-.1 2.581-.16 6.317-.4 12.629-.908 18.879-1.548a5.435 5.435 0 015.987 5.8z" opacity=".1"/><path data-name="Tracé 22" d="M180.743 285.186v-.434l90.64-.986 55.224-.516h.155v-.088l.516-6.937.222-3.1.846-11.663.666-9.239v-.227a5.479 5.479 0 00-.057-1.275.159.159 0 000-.052 5.362 5.362 0 00-1.032-2.395 5.44 5.44 0 00-4.862-2.064c-6.25.64-12.562 1.151-18.879 1.548-.862.062-1.724.114-2.581.16-40.742 2.421-81.118.459-102.965-1.032l-1.548-.114a603.41 603.41 0 01-9.383-.728 5.44 5.44 0 00-5.8 4.4 5.667 5.667 0 00-.093.846l-.351 11.437-.48 14.487-.227 7.411v.578z" fill="#3f3d56"/><path data-name="Tracé 23" d="M329.173 253.569l-.635 7.912-.944 11.793-.237 2.952-.516 6.611-.031.33v.088l-.077.764.057-.764h-.15l-55.224.516-90.655.981v-.145l.253-7.411.516-14.482.33-9.626a3.282 3.282 0 011.579-2.71 3.225 3.225 0 011.951-.465c1.084.088 2.415.191 3.969.3 2.524.186 5.636.4 9.259.63 6.709.423 15.127.877 24.773 1.249 26.838 1.032 63.069 1.378 97.484-1.636 1.548-.134 3.148-.284 4.712-.434a3.231 3.231 0 011.8.341 2.663 2.663 0 01.444.279 3.169 3.169 0 011.032 1.27 1.841 1.841 0 01.129.315 3.242 3.242 0 01.181 1.342z" opacity=".1"/><path data-name="Tracé 24" d="M154.091 260.634v1.646a3.164 3.164 0 01-1.806 2.859l-20.7.4a3.159 3.159 0 01-1.843-2.875v-1.55z" opacity=".1"/><path data-name="Tracé 25" d="M154.344 266.11l-26.967.516v-4.475l26.967-.516z" fill="#3f3d56"/><path data-name="Tracé 26" d="M154.344 266.11l-26.967.516v-4.475l26.967-.516z" opacity=".1"/><path data-name="Tracé 27" d="M155.376 266.11l-26.967.516v-4.475l26.967-.516z" fill="#3f3d56"/><path data-name="Tracé 28" d="M350.792 261.666v1.646a3.164 3.164 0 001.806 2.859l20.7.4a3.158 3.158 0 001.843-2.875v-1.55z" opacity=".1"/><path data-name="Tracé 29" d="M350.534 267.142l26.967.516v-4.475l-26.967-.516z" opacity=".1"/><path data-name="Tracé 30" d="M349.502 267.142l26.967.516v-4.475l-26.967-.516z" fill="#3f3d56"/><path data-name="Tracé 31" d="M234.957 162.015c.041 3.613-1.631 7.019-3.05 10.358a84.379 84.379 0 00-6.534 38.559c.377 5.677 1.331 11.355.377 16.98s-4.351 11.236-9.806 12.851a27.758 27.758 0 0029.811-1.373c4.536-3.3 7.917-7.912 11.225-12.443a50.508 50.508 0 01-6.869 23.1 53.382 53.382 0 0037.946-21.072 27.639 27.639 0 005.017-9.925c1.595-6.709-.63-13.682-2.328-20.387a137.311 137.311 0 01-3.184-17.032 15.156 15.156 0 01.052-5.522c.516-2.1 1.894-3.876 2.911-5.791 2.89-5.44 2.957-12.025 1.476-18s-4.382-11.489-7.257-16.934c-2.3-4.366-4.8-8.934-9.011-11.5a27.413 27.413 0 00-8.712-2.911l-13.094-2.8c-2.864-.614-5.811-1.228-8.707-.779-4.888.764-8.33 4.294-11.354 7.917-2.369 2.818-8.16 8.108-8.568 11.8-.372 3.4 2.632 9.1 3.143 12.686.671 4.645 1.146 3.1 3.768 5.946a9.166 9.166 0 012.748 6.272z" fill="#e2bc74"/><path data-name="Tracé 32" d="M155.206 172.187h-51.4a.258.258 0 010-.516h51.4a.258.258 0 110 .516z" fill="#f2f2f2"/><path data-name="Tracé 33" d="M155.206 176.832h-51.4a.258.258 0 010-.516h51.4a.258.258 0 110 .516z" fill="#f2f2f2"/><path data-name="Tracé 34" d="M155.206 181.477h-51.4a.258.258 0 010-.516h51.4a.258.258 0 110 .516z" fill="#f2f2f2"/></g></svg>